<?xml version="1.0" encoding="UTF-8"?>
<!DOCTYPE svg PUBLIC "-//W3C//DTD SVG 1.1//EN" "http://www.w3.org/Graphics/SVG/1.1/DTD/svg11.dtd">
<svg xmlns="http://www.w3.org/2000/svg" version="1.1" width="512px" height="512px" style="shape-rendering:geometricPrecision; text-rendering:geometricPrecision; image-rendering:optimizeQuality; fill-rule:evenodd; clip-rule:evenodd" xmlns:xlink="http://www.w3.org/1999/xlink">
<g><path style="opacity:0.937" fill="#000000" d="M 302.5,41.5 C 316.785,41.321 330.452,44.1543 343.5,50C 363.835,60.024 382.835,72.024 400.5,86C 439.708,85.8734 455.541,105.04 448,143.5C 441.621,166.883 427.121,183.05 404.5,192C 391.036,197.526 377.036,200.693 362.5,201.5C 360.819,212.39 362.986,222.39 369,231.5C 380.049,255.89 383.049,281.223 378,307.5C 370.77,330.522 364.77,353.856 360,377.5C 358.681,386.799 359.681,395.799 363,404.5C 367.375,411.751 373.875,415.251 382.5,415C 405.617,424.075 415.784,440.908 413,465.5C 411.681,467.487 409.848,468.654 407.5,469C 388.833,469.667 370.167,469.667 351.5,469C 339.155,466.992 330.655,460.159 326,448.5C 319.333,431.167 312.667,413.833 306,396.5C 305.333,372.5 305.333,348.5 306,324.5C 309.44,319.542 313.94,318.375 319.5,321C 321.041,322.579 322.208,324.413 323,326.5C 323.333,348.5 323.667,370.5 324,392.5C 330.723,410.279 337.723,427.946 345,445.5C 347.626,448.231 350.793,450.064 354.5,451C 367.829,451.5 381.163,451.667 394.5,451.5C 391.757,441.589 385.424,435.089 375.5,432C 356.473,428.973 345.306,417.807 342,398.5C 341.196,388.127 341.529,377.793 343,367.5C 348.041,346.003 353.708,324.67 360,303.5C 364.868,275.634 359.868,249.634 345,225.5C 344.333,213.167 344.333,200.833 345,188.5C 346.227,186.274 348.061,184.774 350.5,184C 373.955,184.474 395.288,178.14 414.5,165C 429.691,150.737 434.524,133.57 429,113.5C 426.795,110.96 424.295,108.793 421.5,107C 412.075,106.211 402.742,104.878 393.5,103C 379.339,93.0857 365.006,83.419 350.5,74C 337.563,66.029 323.563,61.1957 308.5,59.5C 292.579,61.7503 277.912,67.2503 264.5,76C 246.182,93.7958 233.349,114.962 226,139.5C 220.595,172.095 234.095,191.595 266.5,198C 290.271,202.234 301.604,192.234 300.5,168C 299.99,159.079 298.824,150.245 297,141.5C 294.362,130.591 291.529,119.757 288.5,109C 289.626,101.588 293.959,98.9209 301.5,101C 303.726,102.227 305.226,104.061 306,106.5C 315.834,131.335 319.5,157.002 317,183.5C 314.474,201.024 304.641,211.857 287.5,216C 274.886,217.417 262.553,216.25 250.5,212.5C 246.809,228.881 239.643,243.548 229,256.5C 212.061,275.441 194.395,293.774 176,311.5C 161.669,326.816 150.336,344.149 142,363.5C 135.502,382.961 134.835,402.628 140,422.5C 143.689,433.729 150.189,442.895 159.5,450C 198.46,451.47 237.46,451.97 276.5,451.5C 273.132,439.971 265.465,433.138 253.5,431C 249.167,430.667 244.833,430.333 240.5,430C 235.931,427.459 234.431,423.625 236,418.5C 244.999,407.508 251.665,395.175 256,381.5C 258.431,357.239 247.931,341.405 224.5,334C 219.547,333.005 214.547,332.338 209.5,332C 201.353,327.222 200.686,321.555 207.5,315C 237.181,313.393 258.347,325.893 271,352.5C 278.008,374.314 274.841,394.647 261.5,413.5C 282.987,421.325 294.654,436.658 296.5,459.5C 296.216,464.255 293.883,467.422 289.5,469C 244.833,469.667 200.167,469.667 155.5,469C 116.318,463.023 87.8184,442.523 70,407.5C 55.9383,370.874 59.2717,335.874 80,302.5C 84.0302,296.24 89.3635,294.907 96,298.5C 98.174,301.546 98.8407,304.88 98,308.5C 78.5558,336.49 74.5558,366.49 86,398.5C 94.5823,417.249 108.082,431.249 126.5,440.5C 112.847,404.48 115.681,369.48 135,335.5C 139.944,327.557 145.277,319.891 151,312.5C 172.333,289.833 193.667,267.167 215,244.5C 225.355,232.765 231.022,219.098 232,203.5C 210.347,186.216 202.347,163.883 208,136.5C 215.959,108.074 230.459,83.5745 251.5,63C 267.026,52.2172 284.026,45.0505 302.5,41.5 Z"/></g>
<g><path style="opacity:0.876" fill="#000000" d="M 332.5,97.5 C 340.522,97.682 344.022,101.682 343,109.5C 340.646,115.095 336.479,116.928 330.5,115C 325.931,112.459 324.431,108.625 326,103.5C 327.436,100.558 329.603,98.5581 332.5,97.5 Z"/></g>
</svg>
