<?xml version="1.0" encoding="UTF-8"?>
<!DOCTYPE svg PUBLIC "-//W3C//DTD SVG 1.1//EN" "http://www.w3.org/Graphics/SVG/1.1/DTD/svg11.dtd">
<svg xmlns="http://www.w3.org/2000/svg" version="1.1" width="512px" height="512px" style="shape-rendering:geometricPrecision; text-rendering:geometricPrecision; image-rendering:optimizeQuality; fill-rule:evenodd; clip-rule:evenodd" xmlns:xlink="http://www.w3.org/1999/xlink">
<g><path style="opacity:0.939" fill="#000000" d="M 325.5,15.5 C 330.223,14.5531 334.056,15.8864 337,19.5C 354.67,46.8393 363.003,76.8393 362,109.5C 367.402,119.302 371.402,129.635 374,140.5C 376.845,160.121 372.345,177.788 360.5,193.5C 369.577,204.992 375.41,217.992 378,232.5C 381.778,259.719 383.445,287.053 383,314.5C 381.273,330.347 377.106,345.513 370.5,360C 380.47,392.148 374.803,421.148 353.5,447C 380.186,449.888 393.352,464.721 393,491.5C 391.833,492.667 390.667,493.833 389.5,495C 314.359,495.475 239.359,495.475 164.5,495C 162.951,493.786 161.785,492.286 161,490.5C 159.397,485.859 157.897,481.192 156.5,476.5C 155.833,476.167 155.167,475.833 154.5,475.5C 141.759,479.402 128.759,480.902 115.5,480C 83.5495,473.716 64.7162,454.55 59,422.5C 58.163,413.723 58.8296,405.057 61,396.5C 63.8456,389.48 66.679,382.48 69.5,375.5C 68.9007,372.298 67.734,369.298 66,366.5C 59.5879,359.179 56.0879,350.679 55.5,341C 55.8966,326.203 63.23,316.87 77.5,313C 89.0122,311.169 98.5122,314.669 106,323.5C 125.909,351.332 127.242,379.999 110,409.5C 108.229,420.893 113.062,427.227 124.5,428.5C 132.826,427.057 141.16,425.723 149.5,424.5C 148.314,404.9 153.481,387.233 165,371.5C 170.763,364.314 176.763,357.314 183,350.5C 181.588,339.588 181.254,328.588 182,317.5C 182.706,312.01 184.039,306.677 186,301.5C 201.38,271.905 216.88,242.405 232.5,213C 213.786,194.315 208.12,172.149 215.5,146.5C 199.934,125.326 190.101,101.659 186,75.5C 184.945,67.8514 184.612,60.1847 185,52.5C 185.785,50.714 186.951,49.214 188.5,48C 191.5,47.3333 194.5,47.3333 197.5,48C 214.698,60.426 232.031,72.5927 249.5,84.5C 262.523,77.3286 276.356,74.9953 291,77.5C 291.772,77.3552 292.439,77.0219 293,76.5C 302.667,57.1667 312.333,37.8333 322,18.5C 323.145,17.3636 324.312,16.3636 325.5,15.5 Z M 329.5,42.5 C 335.317,52.7721 339.484,63.7721 342,75.5C 343.957,88.4186 344.957,101.419 345,114.5C 368.555,156.13 358.389,186.297 314.5,205C 295.353,211.487 276.019,212.154 256.5,207C 239.439,199.386 230.439,186.219 229.5,167.5C 231.006,158.165 232.172,148.832 233,139.5C 216.785,120.401 207.119,98.4015 204,73.5C 217.411,83.4556 230.911,93.289 244.5,103C 247.5,103.667 250.5,103.667 253.5,103C 259.404,98.3825 266.071,95.3825 273.5,94C 282.884,93.6812 292.217,94.0146 301.5,95C 302.667,93.8333 303.833,92.6667 305,91.5C 313.18,75.1401 321.347,58.8068 329.5,42.5 Z M 347.5,205.5 C 355.869,215.928 360.702,227.928 362,241.5C 363.982,260.634 365.482,279.8 366.5,299C 366.714,316.931 363.214,334.098 356,350.5C 344.333,373.833 332.667,397.167 321,420.5C 319.167,432.167 317.333,443.833 315.5,455.5C 317.699,462.825 317.865,470.158 316,477.5C 307.434,479.454 298.601,480.12 289.5,479.5C 289.333,453.498 289.5,427.498 290,401.5C 302.333,378.167 314.667,354.833 327,331.5C 328.28,320.128 323.613,316.795 313,321.5C 302.588,341.326 291.921,360.993 281,380.5C 272.255,363.342 263.255,346.342 254,329.5C 243.387,324.795 238.72,328.128 240,339.5C 250.412,359.991 261.078,380.324 272,400.5C 272.5,426.831 272.667,453.165 272.5,479.5C 263.827,479.666 255.16,479.5 246.5,479C 244.81,476.079 243.81,472.912 243.5,469.5C 244.609,464.678 245.609,459.845 246.5,455C 244.946,443.123 243.113,431.29 241,419.5C 227.667,395.5 214.333,371.5 201,347.5C 198.105,336.592 197.772,325.592 200,314.5C 203.119,306.261 206.786,298.261 211,290.5C 222.833,268.167 234.667,245.833 246.5,223.5C 247.167,223.167 247.833,222.833 248.5,222.5C 279.502,231.782 309.169,228.615 337.5,213C 341.08,210.723 344.414,208.223 347.5,205.5 Z M 80.5,329.5 C 85.9113,328.956 90.078,330.956 93,335.5C 100.122,345.575 104.289,356.742 105.5,369C 104.825,374.063 103.825,379.063 102.5,384C 99.1955,391.442 96.0288,398.942 93,406.5C 90.4328,426.205 98.5995,439.038 117.5,445C 121.833,445.667 126.167,445.667 130.5,445C 137.789,443.339 145.122,442.339 152.5,442C 154.649,447.128 156.649,452.295 158.5,457.5C 149.475,459.138 140.475,460.972 131.5,463C 103.843,464.926 85.676,452.759 77,426.5C 74.8778,417.418 75.2111,408.418 78,399.5C 81.4823,393.533 84.1489,387.199 86,380.5C 86.8494,374.661 86.1827,368.995 84,363.5C 79.0764,356.32 75.2431,348.653 72.5,340.5C 72.9058,335.106 75.5724,331.44 80.5,329.5 Z M 190.5,367.5 C 191.496,367.414 192.329,367.748 193,368.5C 203.667,387.833 214.333,407.167 225,426.5C 226.339,435.7 227.839,444.866 229.5,454C 226.848,462.372 225.848,470.872 226.5,479.5C 224.929,478.691 223.262,478.357 221.5,478.5C 225.299,459.702 218.299,446.869 200.5,440C 193.167,439.333 185.833,439.333 178.5,440C 176.238,440.642 174.071,441.475 172,442.5C 164.003,423.78 165.003,405.446 175,387.5C 180.382,380.958 185.548,374.291 190.5,367.5 Z M 357.5,385.5 C 358.76,399.667 355.593,413 348,425.5C 343.667,431.5 339.333,437.5 335,443.5C 335.526,437.497 336.526,431.497 338,425.5C 344.783,412.267 351.283,398.934 357.5,385.5 Z M 186.5,455.5 C 203.219,455.797 208.553,463.631 202.5,479C 193.482,479.832 184.482,479.665 175.5,478.5C 170.345,466.479 174.012,458.813 186.5,455.5 Z M 334.5,463.5 C 343.975,462.989 353.309,463.822 362.5,466C 368.51,468.836 372.51,473.336 374.5,479.5C 360.833,479.5 347.167,479.5 333.5,479.5C 334.342,474.213 334.676,468.88 334.5,463.5 Z"/></g>
<g><path style="opacity:0.91" fill="#000000" d="M 311.5,119.5 C 324.271,117.442 330.105,122.776 329,135.5C 325.527,143.095 319.694,145.595 311.5,143C 302.221,135.17 302.221,127.336 311.5,119.5 Z"/></g>
<g><path style="opacity:0.912" fill="#000000" d="M 254.5,137.5 C 268.632,136.468 273.799,142.802 270,156.5C 265.509,161.259 260.009,162.759 253.5,161C 243.976,152.672 244.31,144.839 254.5,137.5 Z"/></g>
<g><path style="opacity:0.914" fill="#000000" d="M 290.5,159.5 C 299.773,158.106 304.44,162.106 304.5,171.5C 314.06,170.889 318.226,175.223 317,184.5C 315.833,185.667 314.667,186.833 313.5,188C 309.132,188.709 304.799,188.542 300.5,187.5C 297.709,188.73 295.042,190.23 292.5,192C 283.39,194.216 279.223,190.716 280,181.5C 281.667,178.5 284,176.167 287,174.5C 286.785,171.189 286.785,167.856 287,164.5C 287.997,162.677 289.164,161.01 290.5,159.5 Z"/></g>
</svg>
