<?xml version="1.0" encoding="UTF-8"?>
<!DOCTYPE svg PUBLIC "-//W3C//DTD SVG 1.1//EN" "http://www.w3.org/Graphics/SVG/1.1/DTD/svg11.dtd">
<svg xmlns="http://www.w3.org/2000/svg" version="1.1" width="512px" height="512px" style="shape-rendering:geometricPrecision; text-rendering:geometricPrecision; image-rendering:optimizeQuality; fill-rule:evenodd; clip-rule:evenodd" xmlns:xlink="http://www.w3.org/1999/xlink">
<g><path style="opacity:0.959" fill="#343434" d="M 335.5,-0.5 C 342.833,-0.5 350.167,-0.5 357.5,-0.5C 374.215,3.03754 387.549,11.8709 397.5,26C 421.492,30.6095 445.492,35.1095 469.5,39.5C 469.666,47.84 469.5,56.1733 469,64.5C 459.774,84.7257 444.941,99.2257 424.5,108C 412.887,111.609 401.387,115.442 390,119.5C 385.284,136.514 382.617,153.848 382,171.5C 376.379,178.636 370.046,179.302 363,173.5C 361.04,170.116 360.207,166.45 360.5,162.5C 361.102,141.551 364.936,121.218 372,101.5C 385.674,96.6207 399.507,92.1207 413.5,88C 427.67,81.8234 438.67,72.1567 446.5,59C 425.981,54.2955 405.314,49.9622 384.5,46C 380.244,39.7398 375.244,34.0731 369.5,29C 347.881,16.1979 329.381,19.6979 314,39.5C 305.754,53.6624 299.421,68.6624 295,84.5C 289.663,106.521 284.33,128.521 279,150.5C 256.742,163.38 234.242,175.88 211.5,188C 161.708,216.133 126.542,256.966 106,310.5C 91.8069,349.079 78.8069,388.079 67,427.5C 63.7231,433.109 58.8897,434.942 52.5,433C 46.8917,430.182 44.725,425.682 46,419.5C 58.8825,375.852 73.5492,332.852 90,290.5C 113.895,236.83 151.395,195.663 202.5,167C 221.627,156.701 240.627,146.201 259.5,135.5C 264.508,114.469 269.675,93.4685 275,72.5C 280.672,53.8244 289.005,36.4911 300,20.5C 309.695,9.74122 321.529,2.74122 335.5,-0.5 Z"/></g>
<g><path style="opacity:0.948" fill="#343434" d="M 351.5,38.5 C 357.787,38.6284 361.954,41.6284 364,47.5C 364.924,67.2046 364.59,86.8712 363,106.5C 356.27,123.202 344.104,129.369 326.5,125C 321.142,122.646 316.642,119.146 313,114.5C 306.999,103.508 303.666,91.8417 303,79.5C 307.105,73.3984 312.605,71.8984 319.5,75C 321.378,76.5429 322.878,78.3762 324,80.5C 326.531,87.0914 328.864,93.758 331,100.5C 333.885,105.351 337.218,105.684 341,101.5C 341.333,83.8333 341.667,66.1667 342,48.5C 343.35,43.3193 346.517,39.9859 351.5,38.5 Z"/></g>
<g><path style="opacity:0.961" fill="#343434" d="M 511.5,221.5 C 511.5,225.167 511.5,228.833 511.5,232.5C 509.272,259.071 495.272,276.071 469.5,283.5C 481.17,314.496 478.337,344.162 461,372.5C 456.156,380.188 450.823,387.521 445,394.5C 444.167,415.175 444.334,435.841 445.5,456.5C 455.464,461.085 461.63,468.751 464,479.5C 464.667,487.833 464.667,496.167 464,504.5C 463.033,507.621 461.2,509.954 458.5,511.5C 443.833,511.5 429.167,511.5 414.5,511.5C 406.931,506.147 405.931,499.813 411.5,492.5C 412.912,491.194 414.579,490.36 416.5,490C 425.16,489.5 433.827,489.334 442.5,489.5C 442.84,485.869 442.006,482.536 440,479.5C 436.021,477.503 431.855,476.003 427.5,475C 425.19,473.363 423.69,471.196 423,468.5C 422.333,441.167 422.333,413.833 423,386.5C 430.157,377.519 436.824,368.185 443,358.5C 457.42,334.42 458.087,310.087 445,285.5C 444.333,279.833 444.333,274.167 445,268.5C 446.167,266 448,264.167 450.5,263C 463.511,263.545 474.345,259.045 483,249.5C 486.943,243.437 488.443,236.937 487.5,230C 483.56,228.114 480.06,225.614 477,222.5C 474.215,216.427 471.048,210.594 467.5,205C 457.409,198.873 447.576,192.373 438,185.5C 435.667,179.167 433.333,172.833 431,166.5C 426.605,172.566 422.605,178.9 419,185.5C 401.451,203.603 391.118,225.269 388,250.5C 382.254,263.915 372.42,272.748 358.5,277C 336.32,277.692 314.654,281.359 293.5,288C 270.842,296.658 255.676,312.491 248,335.5C 241.961,363.656 235.294,391.656 228,419.5C 227.333,425.5 227.333,431.5 228,437.5C 228.471,439.246 229.138,440.913 230,442.5C 238.657,448.436 239.49,455.27 232.5,463C 224.613,466.194 218.113,464.361 213,457.5C 207.25,449.08 204.416,439.747 204.5,429.5C 205.093,421.086 206.26,412.753 208,404.5C 214.748,382.507 220.081,360.174 224,337.5C 234.031,298.469 258.531,273.635 297.5,263C 314.239,258.799 331.239,256.466 348.5,256C 357.203,254.962 363.37,250.462 367,242.5C 370.164,216.178 380.831,193.511 399,174.5C 404.283,163.884 411.116,154.384 419.5,146C 423.241,143.268 427.241,140.934 431.5,139C 436.913,136.541 441.747,137.374 446,141.5C 449.863,151.423 453.53,161.423 457,171.5C 466.167,177.333 475.333,183.167 484.5,189C 488.633,194.761 492.133,200.927 495,207.5C 498.577,210.373 502.411,212.873 506.5,215C 508.55,216.965 510.217,219.132 511.5,221.5 Z"/></g>
<g><path style="opacity:0.962" fill="#343434" d="M 184.5,511.5 C 144.167,511.5 103.833,511.5 63.5,511.5C 52.257,507.937 44.4236,500.604 40,489.5C 38.416,481.245 37.416,472.912 37,464.5C 22.8808,447.592 13.5474,428.259 9,406.5C 2.86353,375.79 0.863527,344.79 3,313.5C 5.09343,282.846 9.42676,252.513 16,222.5C 21.6165,215.365 27.9498,214.698 35,220.5C 36.4039,222.639 37.2372,224.972 37.5,227.5C 27.9443,270.666 23.7776,314.333 25,358.5C 25.6292,388.021 32.9626,415.688 47,441.5C 50.3333,446.167 54.3333,450.167 59,453.5C 59.516,463.598 60.516,473.598 62,483.5C 63.6626,485.917 65.8293,487.75 68.5,489C 106.833,489.333 145.167,489.667 183.5,490C 190.562,493.511 192.728,499.011 190,506.5C 188.27,508.402 186.437,510.069 184.5,511.5 Z"/></g>
<g><path style="opacity:0.963" fill="#343434" d="M 390.5,511.5 C 342.5,511.5 294.5,511.5 246.5,511.5C 230.013,508.725 214.346,503.225 199.5,495C 181.569,482.99 171.402,466.157 169,444.5C 168.333,434.167 168.333,423.833 169,413.5C 172.507,393.806 176.173,374.139 180,354.5C 180.667,346.167 180.667,337.833 180,329.5C 179.108,317.499 172.942,309.999 161.5,307C 156.167,306.667 150.833,306.333 145.5,306C 139.397,302.96 137.231,298.126 139,291.5C 140.5,288.667 142.667,286.5 145.5,285C 174.111,280.664 192.611,292.164 201,319.5C 203.828,332.436 204.161,345.436 202,358.5C 199.181,375.929 195.848,393.262 192,410.5C 189.531,424.993 190.198,439.326 194,453.5C 200.035,468.531 210.868,478.365 226.5,483C 234.569,486.101 242.902,488.101 251.5,489C 292.499,489.5 333.499,489.667 374.5,489.5C 374.726,484.45 372.726,480.617 368.5,478C 355.236,476.722 341.902,476.055 328.5,476C 322.723,473.279 320.556,468.779 322,462.5C 328.612,452.608 333.612,441.941 337,430.5C 341.022,410.045 333.856,394.878 315.5,385C 309.288,381.727 302.954,378.727 296.5,376C 292.713,370.624 292.547,365.124 296,359.5C 299.761,356.757 303.928,355.924 308.5,357C 328.689,363.327 344.189,375.494 355,393.5C 362.912,414.008 362.079,434.174 352.5,454C 387.42,453.598 401.92,470.765 396,505.5C 394.64,508.023 392.807,510.023 390.5,511.5 Z"/></g>
</svg>
